<svg width="52" height="52" viewBox="0 0 52 52" fill="none" xmlns="http://www.w3.org/2000/svg">
<g filter="url(#filter0_d_2041_429)">
<path d="M2.5 11C2.5 5.75329 6.75329 1.5 12 1.5H40C45.2467 1.5 49.5 5.75329 49.5 11V39C49.5 44.2467 45.2467 48.5 40 48.5H12C6.75329 48.5 2.5 44.2467 2.5 39V11Z" stroke="#EAECF0" shape-rendering="crispEdges"/>
<path d="M20.5 19.5H20.51M31.5 19.5H31.51M20.5 30.5H20.51M27 26H27.01M31.5 30.5H31.51M31 34H35V30M28 29.5V34M35 27H30.5M29.6 23H33.4C33.9601 23 34.2401 23 34.454 22.891C34.6422 22.7951 34.7951 22.6422 34.891 22.454C35 22.2401 35 21.9601 35 21.4V17.6C35 17.0399 35 16.7599 34.891 16.546C34.7951 16.3578 34.6422 16.2049 34.454 16.109C34.2401 16 33.9601 16 33.4 16H29.6C29.0399 16 28.7599 16 28.546 16.109C28.3578 16.2049 28.2049 16.3578 28.109 16.546C28 16.7599 28 17.0399 28 17.6V21.4C28 21.9601 28 22.2401 28.109 22.454C28.2049 22.6422 28.3578 22.7951 28.546 22.891C28.7599 23 29.0399 23 29.6 23ZM18.6 23H22.4C22.9601 23 23.2401 23 23.454 22.891C23.6422 22.7951 23.7951 22.6422 23.891 22.454C24 22.2401 24 21.9601 24 21.4V17.6C24 17.0399 24 16.7599 23.891 16.546C23.7951 16.3578 23.6422 16.2049 23.454 16.109C23.2401 16 22.9601 16 22.4 16H18.6C18.0399 16 17.7599 16 17.546 16.109C17.3578 16.2049 17.2049 16.3578 17.109 16.546C17 16.7599 17 17.0399 17 17.6V21.4C17 21.9601 17 22.2401 17.109 22.454C17.2049 22.6422 17.3578 22.7951 17.546 22.891C17.7599 23 18.0399 23 18.6 23ZM18.6 34H22.4C22.9601 34 23.2401 34 23.454 33.891C23.6422 33.7951 23.7951 33.6422 23.891 33.454C24 33.2401 24 32.9601 24 32.4V28.6C24 28.0399 24 27.7599 23.891 27.546C23.7951 27.3578 23.6422 27.2049 23.454 27.109C23.2401 27 22.9601 27 22.4 27H18.6C18.0399 27 17.7599 27 17.546 27.109C17.3578 27.2049 17.2049 27.3578 17.109 27.546C17 27.7599 17 28.0399 17 28.6V32.4C17 32.9601 17 33.2401 17.109 33.454C17.2049 33.6422 17.3578 33.7951 17.546 33.891C17.7599 34 18.0399 34 18.6 34Z" stroke="#344054" stroke-width="2" stroke-linecap="round" stroke-linejoin="round"/>
</g>
<defs>
<filter id="filter0_d_2041_429" x="0" y="0" width="52" height="52" filterUnits="userSpaceOnUse" color-interpolation-filters="sRGB">
<feFlood flood-opacity="0" result="BackgroundImageFix"/>
<feColorMatrix in="SourceAlpha" type="matrix" values="0 0 0 0 0 0 0 0 0 0 0 0 0 0 0 0 0 0 127 0" result="hardAlpha"/>
<feOffset dy="1"/>
<feGaussianBlur stdDeviation="1"/>
<feComposite in2="hardAlpha" operator="out"/>
<feColorMatrix type="matrix" values="0 0 0 0 0.0627451 0 0 0 0 0.0941176 0 0 0 0 0.156863 0 0 0 0.05 0"/>
<feBlend mode="normal" in2="BackgroundImageFix" result="effect1_dropShadow_2041_429"/>
<feBlend mode="normal" in="SourceGraphic" in2="effect1_dropShadow_2041_429" result="shape"/>
</filter>
</defs>
</svg>
