<svg width="116" height="116" viewBox="0 0 116 116" fill="none" xmlns="http://www.w3.org/2000/svg">
<path d="M32.0541 0.919312H28.5946V4.37879H32.0541V0.919312Z" fill="black"/>
<path d="M42.4324 0.919312H38.973V4.37879H42.4324V0.919312Z" fill="black"/>
<path d="M45.8919 0.919312H42.4324V4.37879H45.8919V0.919312Z" fill="black"/>
<path d="M49.3514 0.919312H45.8919V4.37879H49.3514V0.919312Z" fill="black"/>
<path d="M56.2703 0.919312H52.8108V4.37879H56.2703V0.919312Z" fill="black"/>
<path d="M66.6487 0.919312H63.1892V4.37879H66.6487V0.919312Z" fill="black"/>
<path d="M83.946 0.919312H80.4865V4.37879H83.946V0.919312Z" fill="black"/>
<path d="M35.5136 4.37898L32.0541 4.37879L32.0541 7.83842H35.5136V4.37898Z" fill="black"/>
<path d="M38.973 4.37879L35.5136 4.37898V7.83842H38.973L38.973 4.37879Z" fill="black"/>
<path d="M42.4324 4.37879H38.973L38.973 7.83842H42.4324V4.37879Z" fill="black"/>
<path d="M45.8919 4.37879H42.4324V7.83842H45.8919V4.37879Z" fill="black"/>
<path d="M49.3514 4.37879H45.8919V7.83842H49.3514V4.37879Z" fill="black"/>
<path d="M52.8108 4.37879H49.3514V7.83842H52.8109L52.8108 4.37879Z" fill="black"/>
<path d="M66.6487 4.37879H63.1892V7.83842H66.6487V4.37879Z" fill="black"/>
<path d="M70.1082 4.37898L66.6487 4.37879V7.83842H70.1082V4.37898Z" fill="black"/>
<path d="M38.973 7.83842H35.5136L35.5136 11.2981H38.973V7.83842Z" fill="black"/>
<path d="M45.8919 7.83842H42.4324L42.4325 11.2981H45.8919V7.83842Z" fill="black"/>
<path d="M52.8109 7.83842H49.3514L49.3514 11.2981H52.8109V7.83842Z" fill="black"/>
<path d="M56.2703 7.83864L52.8109 7.83842V11.2981H56.2703V7.83864Z" fill="black"/>
<path d="M59.7298 7.83864H56.2703V11.2981H59.7298V7.83864Z" fill="black"/>
<path d="M63.1892 7.83842L59.7298 7.83864V11.2981H63.1892L63.1892 7.83842Z" fill="black"/>
<path d="M66.6487 7.83842H63.1892L63.1892 11.2981H66.6487V7.83842Z" fill="black"/>
<path d="M70.1082 7.83842H66.6487V11.2981H70.1082V7.83842Z" fill="black"/>
<path d="M77.0271 7.83864H73.5676V11.2981H77.0271V7.83864Z" fill="black"/>
<path d="M83.946 7.83864H80.4865V11.2981H83.946V7.83864Z" fill="black"/>
<path d="M32.0542 11.2987H28.5947V14.7582H32.0542V11.2987Z" fill="black"/>
<path d="M35.5136 11.2981L32.0542 11.2987V14.7582H35.5137L35.5136 11.2981Z" fill="black"/>
<path d="M42.4325 11.2981H38.973L38.9731 14.7582H42.4326L42.4325 11.2981Z" fill="black"/>
<path d="M45.8919 11.2981H42.4325L42.4326 14.7582H45.8921L45.8919 11.2981Z" fill="black"/>
<path d="M59.7298 11.2981H56.2703L56.2705 14.7582H59.73L59.7298 11.2981Z" fill="black"/>
<path d="M63.1892 11.2981H59.7298L59.73 14.7582H63.1894L63.1892 11.2981Z" fill="black"/>
<path d="M77.0271 11.2981H73.5676L73.5674 14.7582H77.027L77.0271 11.2981Z" fill="black"/>
<path d="M80.4865 11.2981H77.0271L77.027 14.7582H80.4867L80.4865 11.2981Z" fill="black"/>
<path d="M32.0541 14.7567H28.5946V18.2161H32.0541V14.7567Z" fill="black"/>
<path d="M35.5136 14.7567H32.0541V18.2161H35.5136V14.7567Z" fill="black"/>
<path d="M59.7298 14.7567H56.2703V18.2161H59.7298V14.7567Z" fill="black"/>
<path d="M63.1892 14.7567H59.7298V18.2161H63.1892V14.7567Z" fill="black"/>
<path d="M70.1082 14.7567H66.6487V18.2161H70.1082V14.7567Z" fill="black"/>
<path d="M77.0271 14.7567H73.5676V18.2161H77.0271V14.7567Z" fill="black"/>
<path d="M80.4865 14.7567H77.0271V18.2161H80.4865V14.7567Z" fill="black"/>
<path d="M32.0541 18.2161H28.5946L28.5947 21.6761H32.0542L32.0541 18.2161Z" fill="black"/>
<path d="M35.5136 18.2161H32.0541L32.0542 21.6761H35.5137L35.5136 18.2161Z" fill="black"/>
<path d="M38.9731 18.2167L35.5136 18.2161L35.5137 21.6761H38.9731V18.2167Z" fill="black"/>
<path d="M45.8921 18.2167H42.4326V21.6761H45.8921V18.2167Z" fill="black"/>
<path d="M56.2703 18.2161L52.811 18.2167V21.6761H56.2705L56.2703 18.2161Z" fill="black"/>
<path d="M63.1892 18.2161H59.7298L59.73 21.6761H63.1894L63.1892 18.2161Z" fill="black"/>
<path d="M73.5676 18.2161H70.1082L70.1079 21.6761H73.5674L73.5676 18.2161Z" fill="black"/>
<path d="M77.0271 18.2161H73.5676L73.5674 21.6761H77.027L77.0271 18.2161Z" fill="black"/>
<path d="M80.4865 18.2161H77.0271L77.027 21.6761H80.4867L80.4865 18.2161Z" fill="black"/>
<path d="M83.9458 18.2167L80.4865 18.2161L80.4867 21.6761H83.9458V18.2167Z" fill="black"/>
<path d="M87.4053 18.2167H83.9458V21.6761H87.4053V18.2167Z" fill="black"/>
<path d="M32.0542 21.6761H28.5947V25.1351H32.0542V21.6761Z" fill="black"/>
<path d="M38.9731 21.6761H35.5137L35.5137 25.1351H38.9731V21.6761Z" fill="black"/>
<path d="M45.8921 21.6761H42.4326V25.1351H45.8921V21.6761Z" fill="black"/>
<path d="M52.811 21.6761L49.3516 21.6757V25.1351H52.811L52.811 21.6761Z" fill="black"/>
<path d="M59.73 21.6761H56.2705L56.2705 25.1351H59.73L59.73 21.6761Z" fill="black"/>
<path d="M66.6484 21.6757L63.1894 21.6761L63.189 25.1351H66.6484V21.6757Z" fill="black"/>
<path d="M73.5674 21.6761H70.1079V25.1351H73.5674V21.6761Z" fill="black"/>
<path d="M80.4867 21.6761H77.027L77.0273 25.1351H80.4867V21.6761Z" fill="black"/>
<path d="M87.4053 21.6761H83.9458L83.9458 25.1351H87.4053V21.6761Z" fill="black"/>
<path d="M32.0542 25.1351H28.5947L28.5946 28.5952H32.0541L32.0542 25.1351Z" fill="black"/>
<path d="M42.4326 25.1351H38.9731L38.973 28.5952H42.4324L42.4326 25.1351Z" fill="black"/>
<path d="M52.811 25.1351H49.3516L49.3514 28.5952H52.8109L52.811 25.1351Z" fill="black"/>
<path d="M63.189 25.1351H59.73L59.7298 28.5952H63.1892L63.189 25.1351Z" fill="black"/>
<path d="M66.6484 25.1351H63.189L63.1892 28.5952H66.6487L66.6484 25.1351Z" fill="black"/>
<path d="M70.1079 25.1351H66.6484L66.6487 28.5952H70.1082L70.1079 25.1351Z" fill="black"/>
<path d="M73.5674 25.1351H70.1079L70.1082 28.5952H73.5676L73.5674 25.1351Z" fill="black"/>
<path d="M77.0273 25.1351H73.5674L73.5676 28.5952H77.0271L77.0273 25.1351Z" fill="black"/>
<path d="M87.4053 25.1351H83.9458L83.946 28.5952H87.4055L87.4053 25.1351Z" fill="black"/>
<path d="M4.37842 28.5954H0.918945V32.0548H4.37842V28.5954Z" fill="black"/>
<path d="M18.2163 28.5954H14.7568V32.0548H18.2163V28.5954Z" fill="black"/>
<path d="M25.1351 28.5954H21.6757V32.0548H25.1351V28.5954Z" fill="black"/>
<path d="M28.5946 28.5952L25.1351 28.5954V32.0548H28.5946L28.5946 28.5952Z" fill="black"/>
<path d="M32.0541 28.5952H28.5946L28.5946 32.0548H32.0541V28.5952Z" fill="black"/>
<path d="M38.973 28.5952L35.5136 28.5954V32.0548H38.973L38.973 28.5952Z" fill="black"/>
<path d="M45.8919 28.5954L42.4324 28.5952L42.4325 32.0548H45.8919V28.5954Z" fill="black"/>
<path d="M56.2703 28.5954L52.8109 28.5952L52.8108 32.0548H56.2703V28.5954Z" fill="black"/>
<path d="M63.1892 28.5952H59.7298V32.0548H63.1892V28.5952Z" fill="black"/>
<path d="M73.5676 28.5952H70.1082L70.1081 32.0548H73.5676V28.5952Z" fill="black"/>
<path d="M77.0271 28.5952H73.5676V32.0548H77.0271V28.5952Z" fill="black"/>
<path d="M80.4865 28.5954L77.0271 28.5952V32.0548H80.4865V28.5954Z" fill="black"/>
<path d="M83.946 28.5952L80.4865 28.5954V32.0548H83.946L83.946 28.5952Z" fill="black"/>
<path d="M90.8649 28.5954L87.4055 28.5952L87.4054 32.0548H90.8649V28.5954Z" fill="black"/>
<path d="M94.3244 28.5954H90.8649V32.0548H94.3244V28.5954Z" fill="black"/>
<path d="M97.7838 28.5954H94.3244V32.0548H97.7838V28.5954Z" fill="black"/>
<path d="M101.243 28.5954H97.7838V32.0548H101.243V28.5954Z" fill="black"/>
<path d="M104.703 28.5954H101.243V32.0548H104.703V28.5954Z" fill="black"/>
<path d="M115.081 28.5954H111.622V32.0548H115.081V28.5954Z" fill="black"/>
<path d="M7.83786 32.0546L4.37842 32.0548L4.37842 35.5141H7.83786V32.0546Z" fill="black"/>
<path d="M21.6757 32.0548H18.2163L18.2163 35.5141H21.6758L21.6757 32.0548Z" fill="black"/>
<path d="M28.5946 32.0548H25.1351L25.1353 35.5141H28.5947L28.5946 32.0548Z" fill="black"/>
<path d="M38.973 32.0548H35.5136L35.5137 35.5141H38.9731L38.973 32.0548Z" fill="black"/>
<path d="M42.4325 32.0548H38.973L38.9731 35.5141H42.4326L42.4325 32.0548Z" fill="black"/>
<path d="M56.2703 32.0548H52.8108L52.811 35.5141H56.2705L56.2703 32.0548Z" fill="black"/>
<path d="M59.7298 32.0548H56.2703L56.2705 35.5141H59.73L59.7298 32.0548Z" fill="black"/>
<path d="M63.1892 32.0548H59.7298L59.73 35.5141H63.1894L63.1892 32.0548Z" fill="black"/>
<path d="M66.6484 32.0546L63.1892 32.0548L63.1894 35.5141H66.6484V32.0546Z" fill="black"/>
<path d="M77.0271 32.0548H73.5676L73.5674 35.5141H77.027L77.0271 32.0548Z" fill="black"/>
<path d="M80.4865 32.0548H77.0271L77.027 35.5141H80.4867L80.4865 32.0548Z" fill="black"/>
<path d="M83.946 32.0548H80.4865L80.4867 35.5141H83.9458L83.946 32.0548Z" fill="black"/>
<path d="M90.8649 32.0548H87.4054L87.4053 35.5141H90.8647L90.8649 32.0548Z" fill="black"/>
<path d="M104.703 32.0548H101.243L101.243 35.5141H104.703L104.703 32.0548Z" fill="black"/>
<path d="M108.162 32.0546L104.703 32.0548L104.703 35.5141H108.162V32.0546Z" fill="black"/>
<path d="M115.081 32.0548H111.622L111.622 35.5141H115.081L115.081 32.0548Z" fill="black"/>
<path d="M4.37842 35.5141L0.918945 35.5135V38.9729H4.37842L4.37842 35.5141Z" fill="black"/>
<path d="M11.2973 35.5135L7.83786 35.5141L7.83788 38.9729H11.2973V35.5135Z" fill="black"/>
<path d="M18.2163 35.5141L14.7568 35.5135V38.9729H18.2163L18.2163 35.5141Z" fill="black"/>
<path d="M21.6758 35.5141H18.2163L18.2163 38.9729H21.6757L21.6758 35.5141Z" fill="black"/>
<path d="M25.1353 35.5141H21.6758L21.6757 38.9729H25.1351L25.1353 35.5141Z" fill="black"/>
<path d="M28.5947 35.5141H25.1353L25.1351 38.9729H28.5946L28.5947 35.5141Z" fill="black"/>
<path d="M32.0541 35.5135L28.5947 35.5141L28.5946 38.9729H32.0541V35.5135Z" fill="black"/>
<path d="M49.3514 35.5135H45.8919V38.9729H49.3514V35.5135Z" fill="black"/>
<path d="M52.811 35.5141L49.3514 35.5135V38.9729H52.8109L52.811 35.5141Z" fill="black"/>
<path d="M56.2705 35.5141H52.811L52.8109 38.9729H56.2703L56.2705 35.5141Z" fill="black"/>
<path d="M66.6484 35.5141H63.1894L63.1892 38.9729H66.6487L66.6484 35.5141Z" fill="black"/>
<path d="M83.9458 35.5141H80.4867L80.4865 38.9729H83.946L83.9458 35.5141Z" fill="black"/>
<path d="M90.8647 35.5141H87.4053L87.4054 38.9729H90.8649L90.8647 35.5141Z" fill="black"/>
<path d="M104.703 35.5141H101.243L101.243 38.9729H104.703L104.703 35.5141Z" fill="black"/>
<path d="M111.622 35.5141H108.162L108.162 38.9729H111.622L111.622 35.5141Z" fill="black"/>
<path d="M11.2973 38.9729H7.83788L7.83789 42.433H11.2973L11.2973 38.9729Z" fill="black"/>
<path d="M18.2163 38.9729H14.7568L14.7568 42.433H18.2163L18.2163 38.9729Z" fill="black"/>
<path d="M28.5946 38.9729H25.1351L25.1353 42.433H28.5947L28.5946 38.9729Z" fill="black"/>
<path d="M38.9731 38.9735H35.5137V42.433H38.9731V38.9735Z" fill="black"/>
<path d="M45.8919 38.9729L42.4326 38.9735V42.433H45.8921L45.8919 38.9729Z" fill="black"/>
<path d="M49.3514 38.9729H45.8919L45.8921 42.433H49.3516L49.3514 38.9729Z" fill="black"/>
<path d="M59.73 38.9735L56.2703 38.9729L56.2705 42.433H59.73V38.9735Z" fill="black"/>
<path d="M70.1084 38.9735L66.6487 38.9729L66.6489 42.433H70.1084V38.9735Z" fill="black"/>
<path d="M73.5674 38.9735H70.1084V42.433H73.5674V38.9735Z" fill="black"/>
<path d="M80.4865 38.9729L77.0273 38.9735V42.433H80.4867L80.4865 38.9729Z" fill="black"/>
<path d="M87.4054 38.9729H83.946L83.9458 42.433H87.4053L87.4054 38.9729Z" fill="black"/>
<path d="M90.8649 38.9729H87.4054L87.4053 42.433H90.8647L90.8649 38.9729Z" fill="black"/>
<path d="M94.3242 38.9735L90.8649 38.9729L90.8647 42.433H94.3242V38.9735Z" fill="black"/>
<path d="M4.37842 42.4325H0.918945V45.8919H4.37842V42.4325Z" fill="black"/>
<path d="M11.2973 42.433H7.83789V45.8919H11.2973V42.433Z" fill="black"/>
<path d="M14.7568 42.433H11.2973V45.8919H14.7569L14.7568 42.433Z" fill="black"/>
<path d="M25.1353 42.433L21.6758 42.4325V45.8919H25.1352L25.1353 42.433Z" fill="black"/>
<path d="M32.0542 42.4325L28.5947 42.433L28.5947 45.8919H32.0542V42.4325Z" fill="black"/>
<path d="M38.9731 42.433H35.5137V45.8919H38.9731V42.433Z" fill="black"/>
<path d="M45.8921 42.433H42.4326V45.8919H45.8921V42.433Z" fill="black"/>
<path d="M49.3516 42.433H45.8921V45.8919H49.3516V42.433Z" fill="black"/>
<path d="M59.73 42.433H56.2705V45.8919H59.73V42.433Z" fill="black"/>
<path d="M80.4867 42.433H77.0273V45.8919H80.4867V42.433Z" fill="black"/>
<path d="M83.9458 42.433H80.4867V45.8919H83.9458L83.9458 42.433Z" fill="black"/>
<path d="M87.4053 42.433H83.9458L83.9458 45.8919H87.4053V42.433Z" fill="black"/>
<path d="M94.3242 42.433H90.8647L90.8647 45.8919H94.3242V42.433Z" fill="black"/>
<path d="M97.7837 42.4325L94.3242 42.433V45.8919H97.7837V42.4325Z" fill="black"/>
<path d="M104.703 42.4325H101.243V45.8919H104.703V42.4325Z" fill="black"/>
<path d="M115.081 42.4325H111.622V45.8919H115.081V42.4325Z" fill="black"/>
<path d="M4.37842 45.8919H0.918945V49.3519H4.37842V45.8919Z" fill="black"/>
<path d="M11.2973 45.8919H7.83789L7.83788 49.3519H11.2973L11.2973 45.8919Z" fill="black"/>
<path d="M14.7569 45.8919H11.2973L11.2973 49.3519H14.7568L14.7569 45.8919Z" fill="black"/>
<path d="M18.2163 45.8924L14.7569 45.8919L14.7568 49.3519H18.2163V45.8924Z" fill="black"/>
<path d="M21.6758 45.8919L18.2163 45.8924V49.3519H21.6757L21.6758 45.8919Z" fill="black"/>
<path d="M28.5947 45.8919H25.1352L25.1352 49.3519H28.5946L28.5947 45.8919Z" fill="black"/>
<path d="M38.9731 45.8919H35.5137L35.5136 49.3519H38.973L38.9731 45.8919Z" fill="black"/>
<path d="M42.4326 45.8919H38.9731L38.973 49.3519H42.4324L42.4326 45.8919Z" fill="black"/>
<path d="M52.8109 45.8924L49.3516 45.8919L49.3514 49.3519H52.8109V45.8924Z" fill="black"/>
<path d="M63.1892 45.8924L59.73 45.8919L59.7298 49.3519H63.1892V45.8924Z" fill="black"/>
<path d="M66.6487 45.8924H63.1892V49.3519H66.6487V45.8924Z" fill="black"/>
<path d="M70.1082 45.8924H66.6487V49.3519H70.1082V45.8924Z" fill="black"/>
<path d="M73.5676 45.8924H70.1082V49.3519H73.5676V45.8924Z" fill="black"/>
<path d="M87.4053 45.8919H83.9458L83.946 49.3519H87.4055L87.4053 45.8919Z" fill="black"/>
<path d="M90.8647 45.8919H87.4053L87.4055 49.3519H90.8649L90.8647 45.8919Z" fill="black"/>
<path d="M97.7837 45.8919H94.3242L94.3244 49.3519H97.7838L97.7837 45.8919Z" fill="black"/>
<path d="M108.162 45.8924L104.703 45.8919L104.703 49.3519H108.162V45.8924Z" fill="black"/>
<path d="M11.2973 49.3519H7.83788L7.83789 52.8119H11.2973L11.2973 49.3519Z" fill="black"/>
<path d="M18.2163 49.3519H14.7568L14.7568 52.8119H18.2163L18.2163 49.3519Z" fill="black"/>
<path d="M21.6757 49.3519H18.2163L18.2163 52.8119H21.6758L21.6757 49.3519Z" fill="black"/>
<path d="M25.1352 49.3519H21.6757L21.6758 52.8119H25.1352L25.1352 49.3519Z" fill="black"/>
<path d="M38.973 49.3519H35.5136L35.5137 52.8119H38.9731L38.973 49.3519Z" fill="black"/>
<path d="M42.4324 49.3519H38.973L38.9731 52.8119H42.4326L42.4324 49.3519Z" fill="black"/>
<path d="M45.8921 49.3524L42.4324 49.3519L42.4326 52.8119H45.8921V49.3524Z" fill="black"/>
<path d="M52.8109 49.3519H49.3514L49.3516 52.8119H52.811L52.8109 49.3519Z" fill="black"/>
<path d="M56.2705 49.3524L52.8109 49.3519L52.811 52.8119H56.2705V49.3524Z" fill="black"/>
<path d="M63.1892 49.3519H59.7298L59.73 52.8119H63.1894L63.1892 49.3519Z" fill="black"/>
<path d="M66.6487 49.3519H63.1892L63.1894 52.8119H66.6484L66.6487 49.3519Z" fill="black"/>
<path d="M73.5676 49.3519H70.1082L70.1079 52.8119H73.5674L73.5676 49.3519Z" fill="black"/>
<path d="M77.027 49.3524L73.5676 49.3519L73.5674 52.8119H77.027V49.3524Z" fill="black"/>
<path d="M83.946 49.3519L80.4863 49.3524V52.8119H83.9458L83.946 49.3519Z" fill="black"/>
<path d="M87.4055 49.3519H83.946L83.9458 52.8119H87.4053L87.4055 49.3519Z" fill="black"/>
<path d="M90.8649 49.3519H87.4055L87.4053 52.8119H90.8647L90.8649 49.3519Z" fill="black"/>
<path d="M94.3244 49.3519H90.8649L90.8647 52.8119H94.3242L94.3244 49.3519Z" fill="black"/>
<path d="M101.243 49.3524L97.7838 49.3519L97.7837 52.8119H101.243V49.3524Z" fill="black"/>
<path d="M111.622 49.3524L108.162 49.3519L108.162 52.8119H111.622V49.3524Z" fill="black"/>
<path d="M4.37842 52.8114H0.918945V56.2709H4.37842V52.8114Z" fill="black"/>
<path d="M7.83789 52.8119L4.37842 52.8114V56.2709H7.83786L7.83789 52.8119Z" fill="black"/>
<path d="M11.2973 52.8119H7.83789L7.83786 56.2709H11.2973V52.8119Z" fill="black"/>
<path d="M14.7568 52.8119H11.2973V56.2709H14.7569L14.7568 52.8119Z" fill="black"/>
<path d="M18.2163 52.8119H14.7568L14.7569 56.2709H18.2163V52.8119Z" fill="black"/>
<path d="M28.5947 52.8114L25.1352 52.8119L25.1353 56.2709H28.5947V52.8114Z" fill="black"/>
<path d="M38.9731 52.8119H35.5137V56.2709H38.9731V52.8119Z" fill="black"/>
<path d="M42.4326 52.8119H38.9731V56.2709H42.4326V52.8119Z" fill="black"/>
<path d="M49.3516 52.8119H45.8921L45.8921 56.2709H49.3516L49.3516 52.8119Z" fill="black"/>
<path d="M52.811 52.8119H49.3516L49.3516 56.2709H52.811V52.8119Z" fill="black"/>
<path d="M56.2705 52.8119H52.811V56.2709H56.2705V52.8119Z" fill="black"/>
<path d="M59.73 52.8119H56.2705V56.2709H59.73L59.73 52.8119Z" fill="black"/>
<path d="M63.1894 52.8119H59.73L59.73 56.2709H63.1894V52.8119Z" fill="black"/>
<path d="M66.6484 52.8119H63.1894V56.2709H66.6484V52.8119Z" fill="black"/>
<path d="M77.027 52.8119H73.5674L73.5674 56.2709H77.027V52.8119Z" fill="black"/>
<path d="M83.9458 52.8119H80.4863V56.2709H83.9458V52.8119Z" fill="black"/>
<path d="M90.8647 52.8119H87.4053L87.4053 56.2709H90.8647V52.8119Z" fill="black"/>
<path d="M94.3242 52.8119H90.8647V56.2709H94.3242V52.8119Z" fill="black"/>
<path d="M97.7837 52.8119H94.3242V56.2709H97.7837L97.7837 52.8119Z" fill="black"/>
<path d="M4.37842 56.2709H0.918945V59.7296H4.37842V56.2709Z" fill="black"/>
<path d="M7.83786 56.2709H4.37842V59.7296H7.8379L7.83786 56.2709Z" fill="black"/>
<path d="M14.7569 56.2709H11.2973L11.2973 59.7296H14.7568L14.7569 56.2709Z" fill="black"/>
<path d="M18.2163 56.2709H14.7569L14.7568 59.7296H18.2163L18.2163 56.2709Z" fill="black"/>
<path d="M21.6757 56.2702L18.2163 56.2709L18.2163 59.7296H21.6757V56.2702Z" fill="black"/>
<path d="M25.1353 56.2709L21.6757 56.2702V59.7296H25.1351L25.1353 56.2709Z" fill="black"/>
<path d="M32.0541 56.2702L28.5947 56.2709L28.5946 59.7296H32.0541V56.2702Z" fill="black"/>
<path d="M35.5137 56.2709L32.0541 56.2702V59.7296H35.5136L35.5137 56.2709Z" fill="black"/>
<path d="M45.8921 56.2709H42.4326L42.4325 59.7296H45.8919L45.8921 56.2709Z" fill="black"/>
<path d="M63.1894 56.2709H59.73L59.7298 59.7296H63.1892L63.1894 56.2709Z" fill="black"/>
<path d="M66.6484 56.2709H63.1894L63.1892 59.7296H66.6487L66.6484 56.2709Z" fill="black"/>
<path d="M70.1082 56.2702L66.6484 56.2709L66.6487 59.7296H70.1082V56.2702Z" fill="black"/>
<path d="M73.5674 56.2709L70.1082 56.2702V59.7296H73.5676L73.5674 56.2709Z" fill="black"/>
<path d="M77.027 56.2709H73.5674L73.5676 59.7296H77.0271L77.027 56.2709Z" fill="black"/>
<path d="M80.4863 56.2709H77.027L77.0271 59.7296H80.4865L80.4863 56.2709Z" fill="black"/>
<path d="M87.4053 56.2709H83.9458L83.946 59.7296H87.4055L87.4053 56.2709Z" fill="black"/>
<path d="M94.3242 56.2709H90.8647L90.8649 59.7296H94.3244L94.3242 56.2709Z" fill="black"/>
<path d="M101.243 56.2702L97.7837 56.2709L97.7838 59.7296H101.243V56.2702Z" fill="black"/>
<path d="M104.703 56.2702H101.243V59.7296H104.703V56.2702Z" fill="black"/>
<path d="M111.622 56.2702H108.162V59.7296H111.622V56.2702Z" fill="black"/>
<path d="M4.37842 59.7296H0.918945V63.1888H4.37842V59.7296Z" fill="black"/>
<path d="M7.8379 59.7296H4.37842V63.1888H7.83786L7.8379 59.7296Z" fill="black"/>
<path d="M18.2163 59.7296H14.7568L14.7568 63.1888H18.2163L18.2163 59.7296Z" fill="black"/>
<path d="M21.6757 59.7296H18.2163L18.2163 63.1888H21.6758L21.6757 59.7296Z" fill="black"/>
<path d="M28.5946 59.7296H25.1351L25.1353 63.1888H28.5947L28.5946 59.7296Z" fill="black"/>
<path d="M32.0541 59.7296H28.5946L28.5947 63.1888H32.0542L32.0541 59.7296Z" fill="black"/>
<path d="M35.5136 59.7296H32.0541L32.0542 63.1888H35.5137L35.5136 59.7296Z" fill="black"/>
<path d="M38.9731 59.7294L35.5136 59.7296L35.5137 63.1888H38.9731V59.7294Z" fill="black"/>
<path d="M56.2705 59.7294H52.811V63.1888H56.2705V59.7294Z" fill="black"/>
<path d="M59.7298 59.7296L56.2705 59.7294V63.1888H59.73L59.7298 59.7296Z" fill="black"/>
<path d="M66.6487 59.7296H63.1892L63.189 63.1888H66.6484L66.6487 59.7296Z" fill="black"/>
<path d="M73.5676 59.7296H70.1082L70.1079 63.1888H73.5674L73.5676 59.7296Z" fill="black"/>
<path d="M80.4865 59.7296H77.0271L77.0273 63.1888H80.4867L80.4865 59.7296Z" fill="black"/>
<path d="M83.946 59.7296H80.4865L80.4867 63.1888H83.9458L83.946 59.7296Z" fill="black"/>
<path d="M87.4055 59.7296H83.946L83.9458 63.1888H87.4053L87.4055 59.7296Z" fill="black"/>
<path d="M104.703 59.7296H101.243L101.243 63.1888H104.703L104.703 59.7296Z" fill="black"/>
<path d="M108.162 59.7296H104.703L104.703 63.1888H108.162L108.162 59.7296Z" fill="black"/>
<path d="M111.622 59.7296H108.162L108.162 63.1888H111.622L111.622 59.7296Z" fill="black"/>
<path d="M4.37842 63.1888H0.918945V66.6489H4.37842V63.1888Z" fill="black"/>
<path d="M11.2973 63.1895L7.83786 63.1888L7.83788 66.6489H11.2973V63.1895Z" fill="black"/>
<path d="M14.7568 63.1888L11.2973 63.1895V66.6489H14.7568L14.7568 63.1888Z" fill="black"/>
<path d="M18.2163 63.1888H14.7568L14.7568 66.6489H18.2163L18.2163 63.1888Z" fill="black"/>
<path d="M25.1353 63.1888H21.6758L21.6757 66.6489H25.1351L25.1353 63.1888Z" fill="black"/>
<path d="M28.5947 63.1888H25.1353L25.1351 66.6489H28.5946L28.5947 63.1888Z" fill="black"/>
<path d="M38.9731 63.1888H35.5137L35.5136 66.6489H38.973L38.9731 63.1888Z" fill="black"/>
<path d="M45.8919 63.1895H42.4325V66.6489H45.8919V63.1895Z" fill="black"/>
<path d="M49.3514 63.1895H45.8919V66.6489H49.3514V63.1895Z" fill="black"/>
<path d="M56.2705 63.1888H52.811L52.8108 66.6489H56.2703L56.2705 63.1888Z" fill="black"/>
<path d="M59.73 63.1888H56.2705L56.2703 66.6489H59.7298L59.73 63.1888Z" fill="black"/>
<path d="M63.189 63.1888H59.73L59.7298 66.6489H63.1892L63.189 63.1888Z" fill="black"/>
<path d="M73.5674 63.1888H70.1079L70.1081 66.6489H73.5676L73.5674 63.1888Z" fill="black"/>
<path d="M77.0273 63.1888H73.5674L73.5676 66.6489H77.0271L77.0273 63.1888Z" fill="black"/>
<path d="M80.4867 63.1888H77.0273L77.0271 66.6489H80.4865L80.4867 63.1888Z" fill="black"/>
<path d="M83.9458 63.1888H80.4867L80.4865 66.6489H83.946L83.9458 63.1888Z" fill="black"/>
<path d="M87.4053 63.1888H83.9458L83.946 66.6489H87.4055L87.4053 63.1888Z" fill="black"/>
<path d="M90.8649 63.1895L87.4053 63.1888L87.4055 66.6489H90.8649V63.1895Z" fill="black"/>
<path d="M97.7838 63.1895H94.3244V66.6489H97.7838V63.1895Z" fill="black"/>
<path d="M104.703 63.1888H101.243L101.243 66.6489H104.703L104.703 63.1888Z" fill="black"/>
<path d="M111.622 63.1888H108.162L108.162 66.6489H111.622L111.622 63.1888Z" fill="black"/>
<path d="M7.83788 66.6489H4.37842L4.37846 70.1086H7.8379L7.83788 66.6489Z" fill="black"/>
<path d="M11.2973 66.6489H7.83788L7.8379 70.1086H11.2973V66.6489Z" fill="black"/>
<path d="M18.2163 66.6489H14.7568L14.7568 70.1086H18.2163V66.6489Z" fill="black"/>
<path d="M28.5946 66.6489H25.1351L25.1352 70.1086H28.5946V66.6489Z" fill="black"/>
<path d="M38.973 66.6489H35.5136V70.1086H38.973V66.6489Z" fill="black"/>
<path d="M45.8919 66.6489H42.4325V70.1086H45.8919V66.6489Z" fill="black"/>
<path d="M49.3514 66.6489H45.8919V70.1086H49.3514V66.6489Z" fill="black"/>
<path d="M56.2703 66.6489H52.8108V70.1086H56.2703V66.6489Z" fill="black"/>
<path d="M63.1892 66.6489H59.7298L59.7298 70.1086H63.1892V66.6489Z" fill="black"/>
<path d="M66.6487 66.6491L63.1892 66.6489V70.1086H66.6487V66.6491Z" fill="black"/>
<path d="M73.5676 66.6489H70.1081V70.1086H73.5676V66.6489Z" fill="black"/>
<path d="M77.0271 66.6489H73.5676V70.1086H77.0271V66.6489Z" fill="black"/>
<path d="M87.4055 66.6489H83.946L83.946 70.1086H87.4055V66.6489Z" fill="black"/>
<path d="M90.8649 66.6489H87.4055V70.1086H90.8649V66.6489Z" fill="black"/>
<path d="M94.3244 66.6489H90.8649V70.1086H94.3244L94.3244 66.6489Z" fill="black"/>
<path d="M97.7838 66.6489H94.3244L94.3244 70.1086H97.7838V66.6489Z" fill="black"/>
<path d="M111.622 66.6489H108.162V70.1086H111.622V66.6489Z" fill="black"/>
<path d="M4.37846 70.1086L0.918945 70.1093V73.5687H4.37842L4.37846 70.1086Z" fill="black"/>
<path d="M11.2973 70.1086H7.8379L7.83789 73.5687H11.2973L11.2973 70.1086Z" fill="black"/>
<path d="M21.6758 70.1093L18.2163 70.1086L18.2163 73.5687H21.6758V70.1093Z" fill="black"/>
<path d="M25.1352 70.1086L21.6758 70.1093V73.5687H25.1352L25.1352 70.1086Z" fill="black"/>
<path d="M28.5946 70.1086H25.1352L25.1352 73.5687H28.5947L28.5946 70.1086Z" fill="black"/>
<path d="M35.5136 70.1086L32.0542 70.1093V73.5687H35.5137L35.5136 70.1086Z" fill="black"/>
<path d="M42.4325 70.1086H38.973L38.9731 73.5687H42.4326L42.4325 70.1086Z" fill="black"/>
<path d="M49.3514 70.1086H45.8919L45.8921 73.5687H49.3516L49.3514 70.1086Z" fill="black"/>
<path d="M52.8108 70.1086H49.3514L49.3516 73.5687H52.811L52.8108 70.1086Z" fill="black"/>
<path d="M66.6487 70.1086H63.1892L63.189 73.5687H66.6484L66.6487 70.1086Z" fill="black"/>
<path d="M70.1081 70.1086H66.6487L66.6484 73.5687H70.1084L70.1081 70.1086Z" fill="black"/>
<path d="M73.5676 70.1086H70.1081L70.1084 73.5687H73.5674L73.5676 70.1086Z" fill="black"/>
<path d="M94.3244 70.1086H90.8649L90.8647 73.5687H94.3242L94.3244 70.1086Z" fill="black"/>
<path d="M97.7838 70.1086H94.3244L94.3242 73.5687H97.7837L97.7838 70.1086Z" fill="black"/>
<path d="M101.243 70.1093L97.7838 70.1086L97.7837 73.5687H101.243V70.1093Z" fill="black"/>
<path d="M104.703 70.1093H101.243V73.5687H104.703V70.1093Z" fill="black"/>
<path d="M4.37842 73.5687H0.918945V77.0281H4.37842V73.5687Z" fill="black"/>
<path d="M14.7568 73.5685L11.2973 73.5687L11.2973 77.0281H14.7568V73.5685Z" fill="black"/>
<path d="M21.6758 73.5687H18.2163L18.2162 77.0281H21.6757L21.6758 73.5687Z" fill="black"/>
<path d="M45.8921 73.5687H42.4326L42.4325 77.0281H45.8919L45.8921 73.5687Z" fill="black"/>
<path d="M59.7298 73.5685H56.2703V77.0281H59.7298V73.5685Z" fill="black"/>
<path d="M63.189 73.5687L59.7298 73.5685V77.0281H63.1892L63.189 73.5687Z" fill="black"/>
<path d="M70.1084 73.5687H66.6484L66.6487 77.0281H70.1082L70.1084 73.5687Z" fill="black"/>
<path d="M80.4865 73.5685H77.0272V77.0281H80.4865V73.5685Z" fill="black"/>
<path d="M94.3242 73.5687H90.8647L90.8649 77.0281H94.3244L94.3242 73.5687Z" fill="black"/>
<path d="M104.703 73.5687H101.243L101.243 77.0281H104.703L104.703 73.5687Z" fill="black"/>
<path d="M108.162 73.5685L104.703 73.5687L104.703 77.0281H108.162V73.5685Z" fill="black"/>
<path d="M111.622 73.5685H108.162V77.0281H111.622V73.5685Z" fill="black"/>
<path d="M18.2162 77.0281H14.7568L14.7568 80.4865H18.2163L18.2162 77.0281Z" fill="black"/>
<path d="M21.6757 77.0281H18.2162L18.2163 80.4865H21.6758L21.6757 77.0281Z" fill="black"/>
<path d="M25.1352 77.0272L21.6757 77.0281L21.6758 80.4865H25.1352V77.0272Z" fill="black"/>
<path d="M28.5947 77.0272H25.1352V80.4865H28.5947V77.0272Z" fill="black"/>
<path d="M42.4325 77.0281L38.9731 77.0272V80.4865H42.4326L42.4325 77.0281Z" fill="black"/>
<path d="M45.8919 77.0281H42.4325L42.4326 80.4865H45.8921L45.8919 77.0281Z" fill="black"/>
<path d="M52.811 77.0272H49.3516V80.4865H52.811V77.0272Z" fill="black"/>
<path d="M59.7298 77.0281H56.2703L56.2705 80.4865H59.73L59.7298 77.0281Z" fill="black"/>
<path d="M66.6487 77.0281H63.1892L63.189 80.4865H66.6484L66.6487 77.0281Z" fill="black"/>
<path d="M70.1082 77.0281H66.6487L66.6484 80.4865H70.1084L70.1082 77.0281Z" fill="black"/>
<path d="M77.0272 77.0281L73.5674 77.0272V80.4865H77.027L77.0272 77.0281Z" fill="black"/>
<path d="M83.9458 77.0272L80.4865 77.0281L80.4863 80.4865H83.9458V77.0272Z" fill="black"/>
<path d="M87.4053 77.0272H83.9458V80.4865H87.4053V77.0272Z" fill="black"/>
<path d="M90.8649 77.0281L87.4053 77.0272V80.4865H90.8647L90.8649 77.0281Z" fill="black"/>
<path d="M108.162 77.0281H104.703L104.703 80.4865H108.162L108.162 77.0281Z" fill="black"/>
<path d="M111.622 77.0281H108.162L108.162 80.4865H111.622L111.622 77.0281Z" fill="black"/>
<path d="M14.7568 80.4865L11.2974 80.4862V83.9457H14.7569L14.7568 80.4865Z" fill="black"/>
<path d="M18.2163 80.4865H14.7568L14.7569 83.9457H18.2163V80.4865Z" fill="black"/>
<path d="M21.6758 80.4865H18.2163V83.9457H21.6758V80.4865Z" fill="black"/>
<path d="M28.5947 80.4865H25.1352L25.1353 83.9457H28.5947V80.4865Z" fill="black"/>
<path d="M32.0542 80.4862L28.5947 80.4865V83.9457H32.0542V80.4862Z" fill="black"/>
<path d="M38.9731 80.4865L35.5137 80.4862V83.9457H38.9731L38.9731 80.4865Z" fill="black"/>
<path d="M49.3516 80.4865H45.8921L45.8921 83.9457H49.3516L49.3516 80.4865Z" fill="black"/>
<path d="M63.189 80.4865H59.73L59.73 83.9457H63.1894L63.189 80.4865Z" fill="black"/>
<path d="M66.6484 80.4865H63.189L63.1894 83.9457H66.6484V80.4865Z" fill="black"/>
<path d="M70.1084 80.4865H66.6484V83.9457H70.1084V80.4865Z" fill="black"/>
<path d="M73.5674 80.4865H70.1084V83.9457H73.5674L73.5674 80.4865Z" fill="black"/>
<path d="M77.027 80.4865H73.5674L73.5674 83.9457H77.027V80.4865Z" fill="black"/>
<path d="M80.4863 80.4865H77.027V83.9457H80.4867L80.4863 80.4865Z" fill="black"/>
<path d="M90.8647 80.4865H87.4053L87.4053 83.9457H90.8647V80.4865Z" fill="black"/>
<path d="M94.3242 80.4862L90.8647 80.4865V83.9457H94.3242V80.4862Z" fill="black"/>
<path d="M101.243 80.4862H97.7837V83.9457H101.243V80.4862Z" fill="black"/>
<path d="M104.703 80.4865L101.243 80.4862V83.9457H104.703V80.4865Z" fill="black"/>
<path d="M111.622 80.4865H108.162L108.162 83.9457H111.622V80.4865Z" fill="black"/>
<path d="M115.081 80.4862L111.622 80.4865V83.9457H115.081V80.4862Z" fill="black"/>
<path d="M4.37842 83.9462H0.918945V87.4057H4.37842V83.9462Z" fill="black"/>
<path d="M7.8379 83.9462H4.37842V87.4057H7.8379V83.9462Z" fill="black"/>
<path d="M11.2974 83.9457L7.8379 83.9462V87.4057H11.2973L11.2974 83.9457Z" fill="black"/>
<path d="M18.2163 83.9457H14.7569L14.7568 87.4057H18.2163L18.2163 83.9457Z" fill="black"/>
<path d="M25.1353 83.9457H21.6758L21.6757 87.4057H25.1351L25.1353 83.9457Z" fill="black"/>
<path d="M28.5947 83.9457H25.1353L25.1351 87.4057H28.5946L28.5947 83.9457Z" fill="black"/>
<path d="M38.9731 83.9457H35.5137L35.5136 87.4057H38.973L38.9731 83.9457Z" fill="black"/>
<path d="M42.4324 83.9462L38.9731 83.9457L38.973 87.4057H42.4324V83.9462Z" fill="black"/>
<path d="M49.3516 83.9457H45.8921L45.8919 87.4057H49.3514L49.3516 83.9457Z" fill="black"/>
<path d="M52.8109 83.9462L49.3516 83.9457L49.3514 87.4057H52.8109V83.9462Z" fill="black"/>
<path d="M56.2703 83.9462H52.8109V87.4057H56.2703V83.9462Z" fill="black"/>
<path d="M59.73 83.9457L56.2703 83.9462V87.4057H59.7298L59.73 83.9457Z" fill="black"/>
<path d="M63.1894 83.9457H59.73L59.7298 87.4057H63.1892L63.1894 83.9457Z" fill="black"/>
<path d="M73.5674 83.9457H70.1084L70.1081 87.4057H73.5676L73.5674 83.9457Z" fill="black"/>
<path d="M77.027 83.9457H73.5674L73.5676 87.4057H77.0271L77.027 83.9457Z" fill="black"/>
<path d="M80.4867 83.9457H77.027L77.0271 87.4057H80.4865L80.4867 83.9457Z" fill="black"/>
<path d="M87.4053 83.9457L83.946 83.9462V87.4057H87.4055L87.4053 83.9457Z" fill="black"/>
<path d="M90.8647 83.9457H87.4053L87.4055 87.4057H90.8649L90.8647 83.9457Z" fill="black"/>
<path d="M94.3242 83.9457H90.8647L90.8649 87.4057H94.3244L94.3242 83.9457Z" fill="black"/>
<path d="M97.7837 83.9457H94.3242L94.3244 87.4057H97.7838L97.7837 83.9457Z" fill="black"/>
<path d="M101.243 83.9457H97.7837L97.7838 87.4057H101.243L101.243 83.9457Z" fill="black"/>
<path d="M104.703 83.9457H101.243L101.243 87.4057H104.703L104.703 83.9457Z" fill="black"/>
<path d="M111.622 83.9457H108.162L108.162 87.4057H111.622L111.622 83.9457Z" fill="black"/>
<path d="M32.0542 87.4061L28.5946 87.4057L28.5947 90.8656H32.0542V87.4061Z" fill="black"/>
<path d="M38.973 87.4057H35.5136L35.5137 90.8656H38.9731L38.973 87.4057Z" fill="black"/>
<path d="M42.4324 87.4057H38.973L38.9731 90.8656H42.4326L42.4324 87.4057Z" fill="black"/>
<path d="M49.3514 87.4057H45.8919L45.8921 90.8656H49.3516L49.3514 87.4057Z" fill="black"/>
<path d="M52.8109 87.4057H49.3514L49.3516 90.8656H52.811L52.8109 87.4057Z" fill="black"/>
<path d="M56.2703 87.4057H52.8109L52.811 90.8656H56.2705L56.2703 87.4057Z" fill="black"/>
<path d="M59.7298 87.4057H56.2703L56.2705 90.8656H59.73L59.7298 87.4057Z" fill="black"/>
<path d="M63.1892 87.4057H59.7298L59.73 90.8656H63.1894L63.1892 87.4057Z" fill="black"/>
<path d="M77.0271 87.4057H73.5676L73.5674 90.8656H77.027L77.0271 87.4057Z" fill="black"/>
<path d="M80.4865 87.4057H77.0271L77.027 90.8656H80.4867L80.4865 87.4057Z" fill="black"/>
<path d="M83.946 87.4057H80.4865L80.4867 90.8656H83.9458L83.946 87.4057Z" fill="black"/>
<path d="M87.4055 87.4057H83.946L83.9458 90.8656H87.4053L87.4055 87.4057Z" fill="black"/>
<path d="M101.243 87.4057H97.7838L97.7837 90.8656H101.243L101.243 87.4057Z" fill="black"/>
<path d="M108.162 87.4057H104.703L104.703 90.8656H108.162L108.162 87.4057Z" fill="black"/>
<path d="M32.0542 90.8656H28.5947V94.3246H32.0542V90.8656Z" fill="black"/>
<path d="M35.5137 90.8656H32.0542V94.3246H35.5137L35.5137 90.8656Z" fill="black"/>
<path d="M38.9731 90.8656H35.5137L35.5137 94.3246H38.9731V90.8656Z" fill="black"/>
<path d="M52.811 90.8656H49.3516L49.3516 94.3246H52.811V90.8656Z" fill="black"/>
<path d="M56.2705 90.8656H52.811V94.3246H56.2705V90.8656Z" fill="black"/>
<path d="M66.6484 90.8651L63.1894 90.8656L63.189 94.3246H66.6484V90.8651Z" fill="black"/>
<path d="M87.4053 90.8656H83.9458L83.9458 94.3246H87.4053V90.8656Z" fill="black"/>
<path d="M94.3242 90.8651H90.8647V94.3246H94.3242V90.8651Z" fill="black"/>
<path d="M101.243 90.8656H97.7837V94.3246H101.243V90.8656Z" fill="black"/>
<path d="M104.703 90.8656H101.243V94.3246H104.703V90.8656Z" fill="black"/>
<path d="M42.4324 94.3252L38.9731 94.3246L38.973 97.7846H42.4324V94.3252Z" fill="black"/>
<path d="M52.811 94.3246H49.3516L49.3514 97.7846H52.8109L52.811 94.3246Z" fill="black"/>
<path d="M56.2705 94.3246H52.811L52.8109 97.7846H56.2703L56.2705 94.3246Z" fill="black"/>
<path d="M59.7298 94.3252L56.2705 94.3246L56.2703 97.7846H59.7298V94.3252Z" fill="black"/>
<path d="M70.1082 94.3252L66.6484 94.3246L66.6487 97.7846H70.1082V94.3252Z" fill="black"/>
<path d="M80.4865 94.3252H77.0272V97.7846H80.4865V94.3252Z" fill="black"/>
<path d="M87.4053 94.3246H83.9458L83.946 97.7846H87.4055L87.4053 94.3246Z" fill="black"/>
<path d="M101.243 94.3246H97.7837L97.7838 97.7846H101.243L101.243 94.3246Z" fill="black"/>
<path d="M115.081 94.3252H111.622V97.7846H115.081V94.3252Z" fill="black"/>
<path d="M32.0542 97.7841H28.5947V101.244H32.0542V97.7841Z" fill="black"/>
<path d="M42.4324 97.7846H38.973L38.9731 101.244H42.4326L42.4324 97.7846Z" fill="black"/>
<path d="M45.8921 97.7841L42.4324 97.7846L42.4326 101.244H45.8921V97.7841Z" fill="black"/>
<path d="M49.3514 97.7846L45.8921 97.7841V101.244H49.3516L49.3514 97.7846Z" fill="black"/>
<path d="M52.8109 97.7846H49.3514L49.3516 101.244H52.811L52.8109 97.7846Z" fill="black"/>
<path d="M59.7298 97.7846H56.2703L56.2705 101.244H59.73L59.7298 97.7846Z" fill="black"/>
<path d="M70.1082 97.7846H66.6487L66.6489 101.244H70.1084L70.1082 97.7846Z" fill="black"/>
<path d="M80.4865 97.7846H77.0272L77.0273 101.244H80.4867L80.4865 97.7846Z" fill="black"/>
<path d="M87.4055 97.7846H83.946L83.9458 101.244H87.4053L87.4055 97.7846Z" fill="black"/>
<path d="M90.8647 97.7841L87.4055 97.7846L87.4053 101.244H90.8647V97.7841Z" fill="black"/>
<path d="M94.3242 97.7841H90.8647V101.244H94.3242V97.7841Z" fill="black"/>
<path d="M97.7838 97.7846L94.3242 97.7841V101.244H97.7837L97.7838 97.7846Z" fill="black"/>
<path d="M101.243 97.7846H97.7838L97.7837 101.244H101.243L101.243 97.7846Z" fill="black"/>
<path d="M104.703 97.7841L101.243 97.7846L101.243 101.244H104.703V97.7841Z" fill="black"/>
<path d="M115.081 97.7846H111.622L111.622 101.244H115.081L115.081 97.7846Z" fill="black"/>
<path d="M35.5136 101.243L32.0542 101.244L32.0541 104.703H35.5136V101.243Z" fill="black"/>
<path d="M38.9731 101.244L35.5136 101.243V104.703H38.973L38.9731 101.244Z" fill="black"/>
<path d="M45.8921 101.244H42.4326L42.4325 104.703H45.8919L45.8921 101.244Z" fill="black"/>
<path d="M49.3516 101.244H45.8921L45.8919 104.703H49.3514L49.3516 101.244Z" fill="black"/>
<path d="M66.6489 101.244L63.1892 101.243V104.703H66.6487L66.6489 101.244Z" fill="black"/>
<path d="M70.1084 101.244H66.6489L66.6487 104.703H70.1082L70.1084 101.244Z" fill="black"/>
<path d="M73.5676 101.243L70.1084 101.244L70.1082 104.703H73.5676V101.243Z" fill="black"/>
<path d="M83.9458 101.244H80.4867L80.4865 104.703H83.946L83.9458 101.244Z" fill="black"/>
<path d="M94.3242 101.244H90.8647L90.8649 104.703H94.3244L94.3242 101.244Z" fill="black"/>
<path d="M97.7837 101.244H94.3242L94.3244 104.703H97.7838L97.7837 101.244Z" fill="black"/>
<path d="M101.243 101.244H97.7837L97.7838 104.703H101.243L101.243 101.244Z" fill="black"/>
<path d="M104.703 101.244H101.243L101.243 104.703H104.703L104.703 101.244Z" fill="black"/>
<path d="M108.162 101.243L104.703 101.244L104.703 104.703H108.162V101.243Z" fill="black"/>
<path d="M111.622 101.244L108.162 101.243V104.703H111.622L111.622 101.244Z" fill="black"/>
<path d="M35.5136 104.703H32.0541V108.162H35.5136V104.703Z" fill="black"/>
<path d="M45.8919 104.703H42.4325V108.162H45.8919V104.703Z" fill="black"/>
<path d="M52.8109 104.703L49.3514 104.703L49.3514 108.162H52.8109V104.703Z" fill="black"/>
<path d="M56.2703 104.703H52.8109V108.162H56.2703V104.703Z" fill="black"/>
<path d="M66.6487 104.703H63.1892V108.162H66.6487V104.703Z" fill="black"/>
<path d="M73.5676 104.703H70.1082L70.1081 108.162H73.5676V104.703Z" fill="black"/>
<path d="M77.0271 104.703L73.5676 104.703V108.162H77.0271V104.703Z" fill="black"/>
<path d="M90.8649 104.703L87.4054 104.703V108.162H90.8649L90.8649 104.703Z" fill="black"/>
<path d="M94.3244 104.703H90.8649L90.8649 108.162H94.3244V104.703Z" fill="black"/>
<path d="M97.7838 104.703H94.3244V108.162H97.7838V104.703Z" fill="black"/>
<path d="M101.243 104.703H97.7838V108.162H101.243V104.703Z" fill="black"/>
<path d="M104.703 104.703H101.243V108.162H104.703V104.703Z" fill="black"/>
<path d="M42.4325 108.162L38.9731 108.163V111.622H42.4326L42.4325 108.162Z" fill="black"/>
<path d="M45.8919 108.162H42.4325L42.4326 111.622H45.8921L45.8919 108.162Z" fill="black"/>
<path d="M49.3514 108.162H45.8919L45.8921 111.622H49.3516L49.3514 108.162Z" fill="black"/>
<path d="M56.2703 108.162H52.8109L52.811 111.622H56.2705L56.2703 108.162Z" fill="black"/>
<path d="M59.73 108.163L56.2703 108.162L56.2705 111.622H59.73V108.163Z" fill="black"/>
<path d="M63.1892 108.162L59.73 108.163V111.622H63.1894L63.1892 108.162Z" fill="black"/>
<path d="M66.6487 108.162H63.1892L63.1894 111.622H66.6484L66.6487 108.162Z" fill="black"/>
<path d="M77.0271 108.162H73.5676L73.5674 111.622H77.027L77.0271 108.162Z" fill="black"/>
<path d="M83.9458 108.163H80.4863V111.622H83.9458V108.163Z" fill="black"/>
<path d="M87.4054 108.162L83.9458 108.163V111.622H87.4053L87.4054 108.162Z" fill="black"/>
<path d="M94.3244 108.162H90.8649L90.8647 111.622H94.3242L94.3244 108.162Z" fill="black"/>
<path d="M32.0542 111.622H28.5947V115.081H32.0542V111.622Z" fill="black"/>
<path d="M38.9731 111.622L35.5137 111.622V115.081H38.9731L38.9731 111.622Z" fill="black"/>
<path d="M63.1894 111.622H59.73L59.73 115.081H63.1894V111.622Z" fill="black"/>
<path d="M70.1084 111.622L66.6484 111.622L66.6489 115.081H70.1084V111.622Z" fill="black"/>
<path d="M73.5674 111.622L70.1084 111.622V115.081H73.5674L73.5674 111.622Z" fill="black"/>
<path d="M77.027 111.622H73.5674L73.5674 115.081H77.027V111.622Z" fill="black"/>
<path d="M80.4863 111.622H77.027V115.081H80.4867L80.4863 111.622Z" fill="black"/>
<path d="M83.9458 111.622H80.4863L80.4867 115.081H83.9458V111.622Z" fill="black"/>
<path d="M87.4053 111.622H83.9458V115.081H87.4053V111.622Z" fill="black"/>
<path d="M90.8647 111.622H87.4053V115.081H90.8647L90.8647 111.622Z" fill="black"/>
<path d="M94.3242 111.622H90.8647L90.8647 115.081H94.3242V111.622Z" fill="black"/>
<path d="M104.703 111.622H101.243V115.081H104.703V111.622Z" fill="black"/>
<path d="M115.081 111.622H111.622V115.081H115.081V111.622Z" fill="black"/>
<path d="M0.918945 0.919312V25.1355H25.1352V0.919312H0.918945ZM21.5027 21.5031H4.55138V4.55174H21.5027V21.5031Z" fill="black"/>
<path d="M90.8649 0.919312V25.1355H115.081V0.919312H90.8649ZM111.449 21.5031H94.4974V4.55174H111.449V21.5031Z" fill="black"/>
<path d="M0.918945 90.8651V115.081H25.1352V90.8651H0.918945ZM21.5027 111.449H4.55138V94.4975H21.5027V111.449Z" fill="black"/>
<path d="M18.2163 7.83864H7.83788V18.217H18.2163V7.83864Z" fill="black"/>
<path d="M108.162 7.83864H97.7838V18.217H108.162V7.83864Z" fill="black"/>
<path d="M18.2163 97.7841H7.83789V108.162H18.2163V97.7841Z" fill="black"/>
</svg>
